<svg width="68" height="30" viewBox="0 0 68 30" fill="none" xmlns="http://www.w3.org/2000/svg">
<path fill-rule="evenodd" clip-rule="evenodd" d="M62.9874 0.181472C62.0262 0.181472 61.065 0.447798 60.2106 1.0234L33.6003 18.8758L7.81027 0.847286C6.70106 0.104492 5.34382 -0.164816 4.03714 0.0986068C2.73045 0.36203 1.58135 1.13661 0.842636 2.25194C0.103912 3.36727 -0.16391 4.73199 0.0980682 6.04588C0.360046 7.35978 1.13037 8.51521 2.23959 9.25801L30.8107 29.1465C31.6344 29.7015 32.6032 29.9985 33.5948 30C34.5863 30.0015 35.556 29.7075 36.3814 29.1551L65.7728 9.44272C66.6669 8.83908 67.3449 7.96293 67.707 6.94306C68.0691 5.9232 68.0963 4.81342 67.7846 3.77687C67.4728 2.74031 66.8386 1.83166 65.9751 1.18448C65.1116 0.537306 64.0644 0.185742 62.9874 0.181472Z" fill="#8F6246"/>
</svg>
